<?xml version="1.0" encoding="utf-8"?>
<!-- Generator: Adobe Illustrator 16.0.0, SVG Export Plug-In . SVG Version: 6.00 Build 0)  -->
<!DOCTYPE svg PUBLIC "-//W3C//DTD SVG 1.1//EN" "http://www.w3.org/Graphics/SVG/1.1/DTD/svg11.dtd">
<svg version="1.1" id="图形" xmlns="http://www.w3.org/2000/svg" xmlns:xlink="http://www.w3.org/1999/xlink" x="0px" y="0px"
	 width="1000.637px" height="1000.678px" viewBox="0 0 1000.637 1000.678" enable-background="new 0 0 1000.637 1000.678"
	 xml:space="preserve">
<path fill="#19CDFD" d="M858.985,474.802v269.804h-62.259v129.229H210.497V744.605h-68.841V481.784h-40.777v-91.682h40.777V126.843
	h716.893v256.275h41.209v91.684H858.985z M814.7,163.954H192.076v350.141h253.571c-0.563-2.5-0.839-5.052-0.825-7.613
	c0-26.127,17.721-47.887,41.78-54.731l127.467-90.383l-54.454,146.566c-0.051,2.065-0.257,4.126-0.604,6.161H814.7V163.954z"/>
<path fill="#353BA6" d="M500.368,850.28c54.52,0,98.711-44.141,98.711-98.6c0-54.453-92.951-211.397-98.711-211.397
	c-7.112,0-98.71,156.944-98.71,211.397C401.658,806.14,445.852,850.28,500.368,850.28z"/>
<rect x="269.689" y="191.895" fill="#FF6A1C" width="466.968" height="84.266"/>
</svg>
