<?xml version="1.0" encoding="utf-8"?>
<!-- Generator: Adobe Illustrator 16.0.0, SVG Export Plug-In . SVG Version: 6.00 Build 0)  -->
<!DOCTYPE svg PUBLIC "-//W3C//DTD SVG 1.1//EN" "http://www.w3.org/Graphics/SVG/1.1/DTD/svg11.dtd">
<svg version="1.1" id="图形" xmlns="http://www.w3.org/2000/svg" xmlns:xlink="http://www.w3.org/1999/xlink" x="0px" y="0px"
	 width="1000.637px" height="1000.678px" viewBox="0 0 1000.637 1000.678" enable-background="new 0 0 1000.637 1000.678"
	 xml:space="preserve">
<g>
	<path fill="#FF6A1C" d="M259.873,85.464c-84.868,124.92-139.077,202.735-139.077,278.148c0,73.064,58.915,132.024,132.023,136.725
		c33.011-61.313,77.767-129.671,129.626-207.441C361.244,236.34,318.833,172.68,259.873,85.464z"/>
	<path fill="#353BA6" d="M740.76,189.185c-58.912,87.21-101.37,150.87-122.57,207.438c49.506,75.414,84.866,141.425,106.068,205.082
		c74.46,10.703,143.496-40.989,154.192-115.449c0.903-6.265,1.366-12.59,1.391-18.925
		C879.841,391.916,825.628,314.104,740.76,189.185z"/>
	<path fill="#19CDFD" d="M257.523,710.128c0,113.17,91.918,205.086,207.441,205.086c115.517,0,207.438-91.916,207.438-205.086
		c0-113.172-80.168-230.993-207.438-417.232C340.036,479.135,257.523,594.605,257.523,710.128z"/>
</g>
</svg>
