<?xml version="1.0" encoding="utf-8"?>
<!-- Generator: Adobe Illustrator 16.0.0, SVG Export Plug-In . SVG Version: 6.00 Build 0)  -->
<!DOCTYPE svg PUBLIC "-//W3C//DTD SVG 1.1//EN" "http://www.w3.org/Graphics/SVG/1.1/DTD/svg11.dtd">
<svg version="1.1" id="图形" xmlns="http://www.w3.org/2000/svg" xmlns:xlink="http://www.w3.org/1999/xlink" x="0px" y="0px"
	 width="1000.637px" height="1000.678px" viewBox="0 0 1000.637 1000.678" enable-background="new 0 0 1000.637 1000.678"
	 xml:space="preserve">
<path fill="#353BA6" d="M237.95,870.221l62.475-83.291c-70.979-59.504-111.966-147.38-111.947-240.001
	c0-172.317,140.046-312.347,312.366-312.347c172.319,0,312.318,140.029,312.318,312.347
	c0.065,92.738-41.137,180.697-112.437,240.001l62.492,83.291c93.693-76.52,153.579-192.624,153.579-323.292
	c0-230.101-186.374-416.472-416.497-416.472c-230.127,0-416.46,186.371-416.46,416.472
	C84.221,672.33,140.773,790.962,237.95,870.221z"/>
<path fill="#19CDFD" d="M188.478,546.929c0-172.317,140.046-312.347,312.366-312.347c64.55,0,124.419,19.773,174.396,53.096
	l61.919-83.821c-67.646-46.326-148.868-73.399-236.315-73.399c-230.107,0-416.481,186.371-416.481,416.472
	c0,130.149,59.889,246.772,153.587,323.292l62.475-83.291C229.446,727.426,188.458,639.55,188.478,546.929z"/>
<path fill="#FF6A1C" d="M529.629,592.744c4.146-5.77,7.235-12.223,9.135-19.066l124.334-271.424L447.859,508.961
	c-5.782,4.05-10.874,9-15.088,14.667c-19.058,26.608-12.701,63.933,13.9,82.99c26.603,19.057,63.924,12.708,82.989-13.894
	L529.629,592.744z"/>
</svg>
