<?xml version="1.0" encoding="utf-8"?>
<!-- Generator: Adobe Illustrator 16.0.0, SVG Export Plug-In . SVG Version: 6.00 Build 0)  -->
<!DOCTYPE svg PUBLIC "-//W3C//DTD SVG 1.1//EN" "http://www.w3.org/Graphics/SVG/1.1/DTD/svg11.dtd">
<svg version="1.1" id="图形" xmlns="http://www.w3.org/2000/svg" xmlns:xlink="http://www.w3.org/1999/xlink" x="0px" y="0px"
	 width="1000.637px" height="1000.678px" viewBox="0 0 1000.637 1000.678" enable-background="new 0 0 1000.637 1000.678"
	 xml:space="preserve">
<g>
	<path fill="#000" d="M729.762,781.191h-460.98c-46.753-4.767-80.795-46.53-76.029-93.281c4.094-40.168,35.856-71.929,76.029-76.023V443.02
		c-1.437-94.559,49.079-182.293,131.58-228.517c10.527-62.723,50.882-109.654,99.565-109.654c48.69,0,87.727,46.931,99.57,109.654
		c82.638,46.082,133.211,133.908,131.582,228.517v225.446c-13.883-0.023-27.109-5.916-36.406-16.229
		c-9.57-11.099-14.86-25.253-14.908-39.91V443.02c2.153-83.854-49.628-159.664-128.518-188.167c0.217-3.066,0.217-6.145,0-9.211
		c0-46.496-23.245-84.652-51.32-84.652c-28.073,0-50.875,38.156-50.875,84.652c-0.222,3.066-0.222,6.145,0,9.211
		c-78.893,28.503-130.673,104.313-128.515,188.167v169.307c0.15,14.691-5.165,28.92-14.91,39.91
		c-9.301,10.313-22.524,16.205-36.409,16.229c-15.623,1.95-26.71,16.197-24.759,31.824c1.616,12.943,11.81,23.145,24.759,24.76
		h460.545c15.626-1.951,26.708-16.195,24.763-31.819c-1.613-12.947-11.813-23.146-24.763-24.765v-56.139
		c46.63,3.361,81.707,43.889,78.345,90.519C805.079,744.798,771.71,778.167,729.762,781.191L729.762,781.191z M499.492,837.772
		c25.011,0.886,49.121-9.403,65.792-28.073h57.458c-25.124,68.193-100.772,103.104-168.962,77.98
		c-36.156-13.322-64.659-41.822-77.983-77.98h57.9c16.769,18.794,41.07,29.091,66.229,28.073H499.492z"/>
</g>
</svg>
