<?xml version="1.0" encoding="utf-8"?>
<!-- Generator: Adobe Illustrator 16.0.0, SVG Export Plug-In . SVG Version: 6.00 Build 0)  -->
<!DOCTYPE svg PUBLIC "-//W3C//DTD SVG 1.1//EN" "http://www.w3.org/Graphics/SVG/1.1/DTD/svg11.dtd">
<svg version="1.1" id="图形" xmlns="http://www.w3.org/2000/svg" xmlns:xlink="http://www.w3.org/1999/xlink" x="0px" y="0px"
	 width="1000.637px" height="1000.678px" viewBox="0 0 1000.637 1000.678" enable-background="new 0 0 1000.637 1000.678"
	 xml:space="preserve">
	<path fill="#000" d="M846.985,286.01c0.32-31.826-16.501-61.649-43.894-77.841l-118.578-70.125c-27.481-16.268-61.804-16.575-89.555-0.868
		l-119.902,67.845c-27.69,15.671-45.08,45.163-45.379,76.944l-0.658,64.257l-68.361-40.423
		c-22.944-13.584-51.606-13.838-74.769-0.717l-89.75,50.785c-23.124,13.068-37.635,37.687-37.896,64.234l-4.598,448.759
		l327.826,3.124v-0.366l359.47,3.446L846.985,286.01z M215.555,808.146l3.979-387.441c0.038-4.747,2.646-9.158,6.78-11.49
		l89.773-50.8c4.158-2.343,9.255-2.299,13.367,0.126l88.763,52.489c4.098,2.424,6.617,6.886,6.564,11.611l-3.97,387.454
		L215.555,808.146L215.555,808.146z M780.291,813.191l-294.745-2.825l5.427-527.796c0.091-10.003,5.571-19.281,14.274-24.207
		l119.899-67.838c8.717-4.943,19.52-4.837,28.163,0.269l118.593,70.117c8.612,5.1,13.897,14.475,13.794,24.469L780.291,813.191
		L780.291,813.191z"/>
	<path fill="#000" d="M604.827,373.427h61.288v369.812h-61.288V373.427z M289.374,533.117h61.29v210.121h-61.29V533.117z"/>
</svg>
