<?xml version="1.0" encoding="utf-8"?>
<!-- Generator: Adobe Illustrator 16.0.0, SVG Export Plug-In . SVG Version: 6.00 Build 0)  -->
<!DOCTYPE svg PUBLIC "-//W3C//DTD SVG 1.1//EN" "http://www.w3.org/Graphics/SVG/1.1/DTD/svg11.dtd">
<svg version="1.1" id="图形" xmlns="http://www.w3.org/2000/svg" xmlns:xlink="http://www.w3.org/1999/xlink" x="0px" y="0px"
	 width="1000.637px" height="1000.678px" viewBox="0 0 1000.637 1000.678" enable-background="new 0 0 1000.637 1000.678"
	 xml:space="preserve">
<path fill="#000" d="M624.59,540.446c56.504-38.625,93.647-104.12,93.647-178.504c0-120.419-98.192-218.611-218.611-218.611
	c-120.417,0-217.127,98.192-217.127,217.227c0,74.387,37.141,139.782,93.647,178.504c-127.928,50.578-217.13,173.961-217.13,318.285
	h60.952c0-142.744,108.563-261.779,246.861-278.08c1.482,0,38.626-2.963,69.94,0h2.963
	c135.336,19.365,239.456,135.336,239.456,276.598h62.431C840.237,713.022,750.936,589.54,624.59,540.446z M499.626,524.146
	c-90.685,0-163.587-72.902-163.587-163.588c0-90.684,72.902-163.587,163.587-163.587c90.688,0,163.59,72.903,163.59,163.587
	C663.216,451.244,590.41,524.146,499.626,524.146z"/>
</svg>
