<?xml version="1.0" standalone="no"?><!DOCTYPE svg PUBLIC "-//W3C//DTD SVG 1.1//EN" "http://www.w3.org/Graphics/SVG/1.1/DTD/svg11.dtd"><svg class="icon" width="200px" height="200.00px" viewBox="0 0 1024 1024" version="1.1" xmlns="http://www.w3.org/2000/svg"><path fill="#333" d="M848.9 434.1c-7.1 0-14 0.9-20.6 2.7-30.8-53.1-61.6-106.3-92.2-159.6 14.7-14.4 23.8-34.4 23.8-56.6 0-43.7-35.5-79.2-79.2-79.2-37.8 0-69.5 26.7-77.4 62.2-29.7 0-59.4-0.1-89.2-0.1s-59.7 0.1-89.5 0.1c-7.8-35.5-39.5-62.2-77.4-62.2-43.7 0-79.2 35.5-79.2 79.2 0 22.4 9.4 42.7 24.4 57.1-30.6 53.3-61.4 106.6-92.3 159.8-7.3-2.3-15.1-3.5-23.2-3.5-43.7 0-79.2 35.5-79.2 79.2s35.5 79.2 79.2 79.2c7.8 0 15.4-1.1 22.5-3.3 30.9 53.3 61.7 106.6 92.3 160-14.7 14.4-23.8 34.4-23.8 56.5 0 43.7 35.5 79.2 79.2 79.2 37.3 0 68.7-25.9 77-60.7 59.8-0.2 119.6-0.2 179.3 0 8.4 34.8 39.7 60.7 77 60.7 43.7 0 79.2-35.5 79.2-79.2 0-21.9-8.9-41.7-23.3-56.1 30.7-53.3 61.4-106.5 92.2-159.7 6.4 1.7 13.1 2.6 20 2.6 43.7 0 79.2-35.5 79.2-79.2 0.4-43.5-35.2-79.1-78.8-79.1zM801.3 450c-16.1 12.1-27.4 30.2-30.7 50.9H593.7c-2.9-18.5-12.3-34.9-25.7-46.8 30.1-52.4 60-104.5 90.4-157.4 7.1 2.1 14.5 3.2 22.3 3.2 10.8 0 21-2.2 30.4-6.1 30.3 52.3 60.2 104.1 90.2 156.2zM515.5 561.6c-26.6 0-48.3-21.7-48.3-48.3 0-26.6 21.7-48.3 48.3-48.3s48.3 21.7 48.3 48.3c0 26.7-21.7 48.3-48.3 48.3z m165.3-389.2c26.6 0 48.3 21.7 48.3 48.3S707.4 269 680.8 269s-48.3-21.7-48.3-48.3 21.6-48.3 48.3-48.3z m-255.4 62h177.3c3.5 20 14.5 37.4 30.1 49.3-29.6 51.5-59.1 103-89.3 155.6-8.7-3.3-18.1-5.1-28-5.1-10.3 0-20.2 2-29.2 5.6-30.2-52.7-60-104.5-90-156.7 15-12 25.7-29.1 29.1-48.7z m-78-62c26.6 0 48.3 21.7 48.3 48.3S374 269 347.4 269c-26.6 0-48.3-21.7-48.3-48.3s21.7-48.3 48.3-48.3z m-29.6 121.7c9.2 3.7 19.1 5.7 29.6 5.7 8.2 0 16-1.2 23.4-3.5 30.7 53.4 60.8 105.8 91.1 158.7-12.8 11.8-21.8 27.7-24.7 45.6h-182c-3.2-19.7-13.6-36.9-28.5-48.9 30.3-52.3 60.4-104.5 91.1-157.6z m-189 219.2c0-26.6 21.7-48.3 48.3-48.3s48.3 21.7 48.3 48.3-21.7 48.3-48.3 48.3-48.3-21.6-48.3-48.3z m97.6 62c13.8-11 23.9-26.6 28-44.4h183.9c4 17.5 13.8 32.8 27.3 43.8-30.1 52.3-60.1 104.4-90.3 156.9-8.7-3.3-18.1-5.1-27.9-5.1-10.7 0-21 2.1-30.3 6-30.4-52.6-60.5-104.7-90.7-157.2z m121 278.8c-26.6 0-48.3-21.7-48.3-48.3s21.7-48.3 48.3-48.3c26.6 0 48.3 21.7 48.3 48.3 0 26.6-21.7 48.3-48.3 48.3z m255.2-60.9h-177c-3-18.4-12.3-34.7-25.7-46.6 30.2-52.5 60.2-104.7 90.8-158 7.8 2.6 16.1 4 24.8 4 8.2 0 16.1-1.2 23.5-3.6 30.2 52.5 60 104.3 90.2 156.7-13.9 11.9-23.6 28.6-26.6 47.5z m78.2 60.9c-26.6 0-48.3-21.7-48.3-48.3s21.7-48.3 48.3-48.3 48.3 21.7 48.3 48.3c-0.1 26.6-21.7 48.3-48.3 48.3zM711.9 733c-9.6-4.1-20.1-6.4-31.2-6.4-9.4 0-18.4 1.6-26.7 4.7-29.9-52-59.6-103.6-89.6-155.7 13.9-10.9 24-26.4 28.2-44.1h179.1c4.4 18.6 15.3 34.6 30.2 45.6-30 52-59.8 103.6-90 155.9z m137-171.4c-26.6 0-48.3-21.7-48.3-48.3 0-26.6 21.7-48.3 48.3-48.3s48.3 21.7 48.3 48.3c0 26.7-21.7 48.3-48.3 48.3z" /></svg>