<?xml version="1.0" encoding="utf-8"?>
<!-- Generator: Adobe Illustrator 16.0.0, SVG Export Plug-In . SVG Version: 6.00 Build 0)  -->
<!DOCTYPE svg PUBLIC "-//W3C//DTD SVG 1.1//EN" "http://www.w3.org/Graphics/SVG/1.1/DTD/svg11.dtd">
<svg version="1.1" id="图形" xmlns="http://www.w3.org/2000/svg" xmlns:xlink="http://www.w3.org/1999/xlink" x="0px" y="0px"
	 width="1000.637px" height="1000.678px" viewBox="0 0 1000.637 1000.678" enable-background="new 0 0 1000.637 1000.678"
	 xml:space="preserve">
<g>
	<path fill="#FF6A1C" d="M299.867,299.737c0,110.807,89.792,200.599,200.399,200.599V99.338
		C389.659,99.338,299.867,189.13,299.867,299.737z"/>
	<path fill="#BFBDCB" d="M700.76,301.841c-110.815,0.056-200.559,89.898-200.493,200.505l401.005-0.217
		C901.206,391.52,811.369,301.774,700.76,301.841z"/>
	<path fill="#353BA6" d="M299.877,700.841c110.815-0.055,200.558-89.898,200.492-200.505l-401.004,0.218
		C99.431,611.163,189.268,700.907,299.877,700.841z"/>
	<path fill="#19CDFD" d="M500.37,500.341V901.34c110.607,0,200.399-89.792,200.399-200.6
		C700.77,590.133,610.978,500.341,500.37,500.341z"/>
</g>
</svg>
