<?xml version="1.0" encoding="utf-8"?>
<!-- Generator: Adobe Illustrator 16.0.0, SVG Export Plug-In . SVG Version: 6.00 Build 0)  -->
<!DOCTYPE svg PUBLIC "-//W3C//DTD SVG 1.1//EN" "http://www.w3.org/Graphics/SVG/1.1/DTD/svg11.dtd">
<svg version="1.1" id="图形" xmlns="http://www.w3.org/2000/svg" xmlns:xlink="http://www.w3.org/1999/xlink" x="0px" y="0px"
	 width="1000.637px" height="1000.678px" viewBox="0 0 1000.637 1000.678" enable-background="new 0 0 1000.637 1000.678"
	 xml:space="preserve">
<g>
	<path fill="#BFBDCB" d="M904.127,868.993H96.51c-23.113,0-41.776-18.412-41.776-40.992V172.439
		c0-22.631,18.663-40.941,41.776-40.941c23.117,0,41.763,18.362,41.763,41.054v614.583h765.854
		c23.037,0,41.775,18.361,41.775,41.055c0,22.689-18.725,40.992-41.775,40.992V868.993z"/>
	<path fill="#19CDFD" d="M816.205,746.077h-83.541c-23.041,0-32.596-17.629-32.596-40.258V427.293
		c0-20.131,6.037-45.224,36.736-45.224h70.469c25.664,0,41.127,9.291,41.127,42.138v280.878c0,22.631-9.082,40.941-32.195,40.941
		V746.077z"/>
	<path fill="#FF6A1C" d="M582.314,746.077h-95.881c-23.041,0-32.133-8.049-32.133-30.68V254.426c0-22.631,0-41.054,39.16-41.054
		h71.35c39.229,0,43.072,18.423,43.072,41.054l1.904,460.237c0,22.631-9.42,31.363-27.373,31.363L582.314,746.077z"/>
	<path fill="#353BA6" d="M328.433,746.077h-86.427c-23.113,0-34.112-18.313-34.112-40.947v-81.969
		c0-22.682,13.886-40.98,36.986-40.98h83.554c23.08,0,33.592,18.35,33.592,40.98v80.689c0,22.631-0.323,42.176-33.592,42.176
		V746.077z"/>
</g>
</svg>
