<?xml version="1.0" encoding="utf-8"?>
<!-- Generator: Adobe Illustrator 16.0.0, SVG Export Plug-In . SVG Version: 6.00 Build 0)  -->
<!DOCTYPE svg PUBLIC "-//W3C//DTD SVG 1.1//EN" "http://www.w3.org/Graphics/SVG/1.1/DTD/svg11.dtd">
<svg version="1.1" id="图形" xmlns="http://www.w3.org/2000/svg" xmlns:xlink="http://www.w3.org/1999/xlink" x="0px" y="0px"
	 width="1000.637px" height="1000.678px" viewBox="0 0 1000.637 1000.678" enable-background="new 0 0 1000.637 1000.678"
	 xml:space="preserve">
<g>
	<path fill="#19CDFD" d="M668.967,806.271v-48.046h39.476V513.475H537.034v41.41h-80.39v-41.41H229.088
		c-26.181,0-47.043-8.69-64.022-26.581l-0.613-0.609c-17.484-17.484-25.977-38.14-25.977-63.389V163.021H98.997v-47.949h232.669
		v47.949h-39.473v194.958h165.172v-41.406h80.387v42.02h233.897c26.185,0,47.149,8.691,64.023,26.582l0.31,0.302l0.304,0.309
		c17.489,17.479,25.874,38.134,25.874,63.387v309.156h39.479v47.944H668.967z"/>
	<path fill="#FF6A1C" d="M495.813,633.399l72.618,96.815l5.727,7.667l0.62,0.609c10.841,15.95,15.946,33.738,16.563,52.246
		c0,52.233-42.644,94.869-94.911,94.869c-52.261,0-94.906-42.636-94.906-94.869c0-22.289,7.671-43.965,21.683-60.522
		L495.813,633.399z"/>
</g>
</svg>
