<?xml version="1.0" encoding="utf-8"?>
<!-- Generator: Adobe Illustrator 16.0.0, SVG Export Plug-In . SVG Version: 6.00 Build 0)  -->
<!DOCTYPE svg PUBLIC "-//W3C//DTD SVG 1.1//EN" "http://www.w3.org/Graphics/SVG/1.1/DTD/svg11.dtd">
<svg version="1.1" id="图层_1" xmlns="http://www.w3.org/2000/svg" xmlns:xlink="http://www.w3.org/1999/xlink" x="0px" y="0px"
	 width="90px" height="90px" viewBox="0 0 90 90" enable-background="new 0 0 90 90" xml:space="preserve">
<path fill="#000" d="M74.541,45c0,12.563-13.227,22.745-29.542,22.745c-16.314,0-29.54-10.184-29.54-22.745
	S28.685,22.255,45,22.255C61.314,22.255,74.541,32.438,74.541,45z M51.037,22.734c0,0-4.836,1.222-9.529,5.946
	c-2.857,2.968-4.058,7.928-3.115,10.947c0.944,3.021,6.936,8.608,9.533,10.854c2.596,2.245,5.19,5.19,4.246,8.305
	c-0.943,3.115-7.021,8.637-9.758,8.92l4.91-0.012c0,0,9.655-5.146,9.804-11.03c0-5.574-4.018-7.046-8.636-11.216
	c-4.62-4.169-6.984-7.612-5.663-11.293s5.665-9.593,12.648-10.442c0,0,0,0.019-2.207-0.553
	C51.145,22.719,51.037,22.734,51.037,22.734z M56.842,24.177c0,0-11.405,5.164-9.359,11.11c2.047,5.945,16.75,14.634,15.26,19.63
	C61.254,59.915,56.77,65.733,50.354,67.4c0,0,3.166-0.482,6.066-1.42c2.9-0.938,10.576-8.51,10.418-13.14
	c-0.156-4.629-4.215-6.765-6.857-8.841s-9.507-6.165-7.619-11.828c1.887-5.662,5.652-7.561,5.652-7.561L56.842,24.177z"/>
</svg>
