<?xml version="1.0" encoding="utf-8"?>
<!-- Generator: Adobe Illustrator 16.0.0, SVG Export Plug-In . SVG Version: 6.00 Build 0)  -->
<!DOCTYPE svg PUBLIC "-//W3C//DTD SVG 1.1//EN" "http://www.w3.org/Graphics/SVG/1.1/DTD/svg11.dtd">
<svg version="1.1" id="图形" xmlns="http://www.w3.org/2000/svg" xmlns:xlink="http://www.w3.org/1999/xlink" x="0px" y="0px"
	 width="1000.637px" height="1000.678px" viewBox="0 0 1000.637 1000.678" enable-background="new 0 0 1000.637 1000.678"
	 xml:space="preserve">
<path d="M793.399,141.869H680.179c-17.915,0-32.605,14.69-32.605,32.605c0,17.913,14.69,32.604,32.605,32.604h80.615
	c17.916,0,32.605,14.691,32.605,32.604v81.332c0,17.915,14.688,32.604,32.605,32.604c17.916,0,32.605-14.688,32.605-32.604V207.078
	C858.61,170.89,829.59,141.869,793.399,141.869z M174.632,353.618c17.913,0,32.604-14.688,32.604-32.604v-81.689
	c0-17.915,14.69-32.605,32.604-32.605h80.616c17.914,0,32.605-14.688,32.605-32.604s-14.691-32.247-32.963-32.247H207.235
	c-36.188,0-65.209,29.021-65.209,65.209v113.937C142.026,338.93,156.717,353.618,174.632,353.618z M320.813,794.318h-80.975
	c-17.913,0-32.604-14.689-32.604-32.603v-80.979c0-17.552-14.332-32.244-32.247-32.244h-0.716
	c-17.556,0-32.246,14.331-32.246,32.244v112.861c0,35.835,29.021,65.211,65.209,65.211h113.578
	c17.556,0,32.247-14.331,32.247-32.246C353.061,808.649,338.369,794.318,320.813,794.318z M826.361,648.492h-1.074
	c-17.557,0-32.246,14.331-32.246,32.244v80.979c0,17.913-14.688,32.603-32.605,32.603h-80.975
	c-17.557,0-32.243,14.331-32.243,32.244c0,17.915,14.331,32.246,32.243,32.246h113.58c35.826,0,65.211-29.021,65.211-65.211v-112.5
	C858.61,662.823,844.276,648.492,826.361,648.492L826.361,648.492z M174.632,533.48h651.373c17.916,0,32.605-14.689,32.605-32.604
	s-14.334-32.603-32.605-32.603H174.632c-17.915,0-32.605,14.688-32.605,32.603S156.717,533.48,174.632,533.48z"/>
</svg>
