<?xml version="1.0" encoding="utf-8"?>
<!-- Generator: Adobe Illustrator 16.0.0, SVG Export Plug-In . SVG Version: 6.00 Build 0)  -->
<!DOCTYPE svg PUBLIC "-//W3C//DTD SVG 1.1//EN" "http://www.w3.org/Graphics/SVG/1.1/DTD/svg11.dtd">
<svg version="1.1" id="图形" xmlns="http://www.w3.org/2000/svg" xmlns:xlink="http://www.w3.org/1999/xlink" x="0px" y="0px"
	 width="1000.637px" height="1000.678px" viewBox="0 0 1000.637 1000.678" enable-background="new 0 0 1000.637 1000.678"
	 xml:space="preserve">
<g>
	<path d="M500.317,118.22c0,0-286.588,277.864-286.588,467.271c0,163.232,127.728,296.968,286.588,296.968
		c158.861,0,286.591-133.735,286.591-296.968C786.908,396.083,500.317,118.22,500.317,118.22z M500.317,812.587
		c-121.722,0-218.354-102.086-218.354-227.097c0-99.882,119.555-260.929,220.541-369.556
		c98.799,105.908,218.354,269.673,218.354,369.556C718.672,710.501,622.041,812.587,500.317,812.587z"/>
	<path d="M374.757,564.202h-45.313c4.372,105.908,88.457,191.06,191.627,191.06h8.176v-46.946h-8.176
		C442.46,708.315,378.595,644.45,374.757,564.202z"/>
</g>
</svg>
