<?xml version="1.0" encoding="utf-8"?>
<!-- Generator: Adobe Illustrator 16.0.0, SVG Export Plug-In . SVG Version: 6.00 Build 0)  -->
<!DOCTYPE svg PUBLIC "-//W3C//DTD SVG 1.1//EN" "http://www.w3.org/Graphics/SVG/1.1/DTD/svg11.dtd">
<svg version="1.1" id="图形" xmlns="http://www.w3.org/2000/svg" xmlns:xlink="http://www.w3.org/1999/xlink" x="0px" y="0px"
	 width="1000.637px" height="1000.678px" viewBox="0 0 1000.637 1000.678" enable-background="new 0 0 1000.637 1000.678"
	 xml:space="preserve">
<path d="M499.502,500.339c-1.537,0.657-1.451,0.754,0.706,0.809c1.422,0.035,2.221-0.305,1.906-0.809
	c-0.298-0.479-0.611-0.843-0.706-0.811C501.314,499.564,500.459,499.928,499.502,500.339"/>
<path d="M499.502,500.339c-1.537,0.657-1.451,0.754,0.706,0.809c1.422,0.035,2.221-0.305,1.906-0.809
	c-0.298-0.479-0.611-0.843-0.706-0.811C501.314,499.564,500.459,499.928,499.502,500.339"/>
<path d="M499.502,500.339c-1.537,0.657-1.451,0.754,0.706,0.809c1.422,0.035,2.221-0.305,1.906-0.809
	c-0.298-0.479-0.611-0.843-0.706-0.811C501.314,499.564,500.459,499.928,499.502,500.339"/>
<path d="M499.502,500.339c-1.537,0.657-1.451,0.754,0.706,0.809c1.422,0.035,2.221-0.305,1.906-0.809
	c-0.298-0.479-0.611-0.843-0.706-0.811C501.314,499.564,500.459,499.928,499.502,500.339"/>
<g>
	<path d="M774.963,228.337c-0.098,0-0.195,0.006-0.294,0.007h-42.474v-71.879c0-15.196-12.362-27.557-27.558-27.557
		c-0.026,0-0.052,0.002-0.078,0.002H275.365c-42.122,0-76.45,33.899-77.21,75.854c-0.024,0.469-0.036,0.94-0.036,1.415v588.296
		c0,42.621,34.649,77.295,77.246,77.295h499.598c14.242,0,25.999-10.864,27.412-24.741c0.094-0.925,0.143-1.863,0.143-2.813V255.897
		C802.518,240.697,790.154,228.337,774.963,228.337z M275.365,228.344c-12.204,0-22.137-9.943-22.137-22.165
		c0-12.215,9.933-22.154,22.137-22.154h401.716v44.319H275.365z M253.229,280.204c7.018,2.104,14.444,3.249,22.137,3.249H747.4
		v533.203H275.365c-12.204,0-22.133-9.949-22.133-22.182c0-0.046-0.003-0.092-0.004-0.138V280.204z"/>
	<path d="M360.12,429.598h270.447c15.196,0,27.557-12.36,27.557-27.554c0-15.196-12.36-27.56-27.557-27.56H360.12
		c-15.171,0-27.508,12.363-27.508,27.56C332.612,417.237,344.949,429.598,360.12,429.598z"/>
	<path d="M360.12,531.516h140.197c15.191,0,27.556-12.361,27.556-27.554c0-15.196-12.364-27.56-27.556-27.56H360.12
		c-15.171,0-27.508,12.363-27.508,27.56C332.612,519.154,344.949,531.516,360.12,531.516z"/>
</g>
</svg>
