<?xml version="1.0" encoding="utf-8"?>
<!-- Generator: Adobe Illustrator 16.0.0, SVG Export Plug-In . SVG Version: 6.00 Build 0)  -->
<!DOCTYPE svg PUBLIC "-//W3C//DTD SVG 1.1//EN" "http://www.w3.org/Graphics/SVG/1.1/DTD/svg11.dtd">
<svg version="1.1" id="图形" xmlns="http://www.w3.org/2000/svg" xmlns:xlink="http://www.w3.org/1999/xlink" x="0px" y="0px"
	 width="1000.637px" height="1000.678px" viewBox="0 0 1000.637 1000.678" enable-background="new 0 0 1000.637 1000.678"
	 xml:space="preserve">
<path d="M253.565,475.664h-98.701c-27.254,0-49.352,22.097-49.352,49.35l0,0v197.404c0,27.252,22.097,49.35,49.352,49.35l0,0h98.701
	c27.252,0,49.35-22.098,49.35-49.35l0,0V525.014C302.915,497.761,280.818,475.664,253.565,475.664L253.565,475.664z"/>
<path d="M549.669,130.209h-98.701c-27.254,0-49.352,22.097-49.352,49.352l0,0v542.857c0,27.252,22.098,49.35,49.352,49.35l0,0
	h98.701c27.254,0,49.353-22.098,49.353-49.35l0,0V179.561C599.021,152.306,576.923,130.209,549.669,130.209L549.669,130.209z"/>
<path d="M845.771,278.262h-98.7c-27.252,0-49.351,22.097-49.351,49.35l0,0v394.807c0,27.252,22.099,49.35,49.351,49.35l0,0h98.7
	c27.255,0,49.353-22.098,49.353-49.35l0,0V327.611C895.124,300.359,873.026,278.262,845.771,278.262L845.771,278.262z"/>
<path d="M499.502,500.339c-1.537,0.657-1.451,0.754,0.706,0.811c1.422,0.033,2.221-0.307,1.906-0.811
	c-0.298-0.479-0.611-0.843-0.706-0.811C501.314,499.564,500.459,499.928,499.502,500.339"/>
<path d="M499.502,500.339c-1.537,0.657-1.451,0.754,0.706,0.811c1.422,0.033,2.221-0.307,1.906-0.811
	c-0.298-0.479-0.611-0.843-0.706-0.811C501.314,499.564,500.459,499.928,499.502,500.339"/>
<path d="M499.502,500.339c-1.537,0.657-1.451,0.754,0.706,0.811c1.422,0.033,2.221-0.307,1.906-0.811
	c-0.298-0.479-0.611-0.843-0.706-0.811C501.314,499.564,500.459,499.928,499.502,500.339"/>
<path d="M499.502,500.339c-1.537,0.657-1.451,0.754,0.706,0.811c1.422,0.033,2.221-0.307,1.906-0.811
	c-0.298-0.479-0.611-0.843-0.706-0.811C501.314,499.564,500.459,499.928,499.502,500.339"/>
<path d="M870.448,870.469h-740.26c-13.63,0-24.676-11.046-24.676-24.674c0-13.624,11.046-24.676,24.676-24.676h740.26
	c13.624,0,24.676,11.052,24.676,24.676C895.124,859.423,884.072,870.469,870.448,870.469L870.448,870.469z"/>
</svg>
